<svg xmlns="http://www.w3.org/2000/svg" viewBox="0 0 1200 760">
 <defs><linearGradient id="bg" x2="0" y2="1"><stop stop-color="#d0e9f8"/><stop offset=".62" stop-color="#f0f6f8"/><stop offset=".63" stop-color="#9db592"/><stop offset="1" stop-color="#7f9578"/></linearGradient></defs>
 <rect width="1200" height="760" fill="url(#bg)"/>
 <g transform="translate(75 95)">
  <text x="15" y="38" font-family="Arial" font-size="36" font-weight="800" fill="#092a48">B-221-2024</text><text x="15" y="74" font-family="Arial" font-size="24" fill="#365b74">Pier-Cap Access Ladder</text>
  <polygon points="180,185 845,185 960,245 295,245" fill="#aeb8bf"/><polygon points="295,245 960,245 960,325 295,325" fill="#60727e"/><polygon points="180,185 295,245 295,325 180,265" fill="#73838d"/>
  <g stroke="#293f4c" stroke-width="8"><path d="M330 235H890"/><path d="M360 205H860"/></g>
  <g stroke="#d63b35" stroke-width="4" fill="none"><path d="M180 150H960"/><path d="M180 142v16M960 142v16"/></g><text x="485" y="132" font-family="Arial" font-size="23" font-weight="700" fill="#b12f2a">5.200 m RCC DECK</text>
  <g transform="translate(530 300)">
   <path d="M0 0L-75 295M80 0L5 295" stroke="#e67f2c" stroke-width="13"/>
   <g stroke="#e67f2c" stroke-width="8"><path d="M-4 30H72M-12 62H64M-20 94H56M-28 126H48M-36 158H40M-44 190H32M-52 222H24M-60 254H16M-68 286H8"/></g>
   <path d="M0 0V-85M80 0V-85M0-85H80" stroke="#d63b35" stroke-width="7" fill="none"/>
  </g>
  <rect x="340" y="585" width="390" height="42" rx="4" fill="#687984"/><polygon points="340,585 730,585 780,615 390,615" fill="#98a6ae"/>
  <g stroke="#cf3b34" stroke-width="4"><path d="M460 650H610"/><path d="M460 643v14M610 643v14"/></g><text x="472" y="682" font-family="Arial" font-size="21" font-weight="700" fill="#b22f2a">0.400 m LADDER</text>
  <text x="650" y="470" font-family="Arial" font-size="20" fill="#4d5c66">0.250 m step c/c</text><text x="650" y="500" font-family="Arial" font-size="20" fill="#4d5c66">1.000 m handrail extension</text>
 </g></svg>